<?xml version="1.0" encoding="utf-8"?>
<!-- Generator: Adobe Illustrator 22.0.1, SVG Export Plug-In . SVG Version: 6.00 Build 0)  -->
<svg fill="#000" version="1.1" id="레이어_1" xmlns="http://www.w3.org/2000/svg" xmlns:xlink="http://www.w3.org/1999/xlink" x="0px"
	 y="0px" viewBox="0 0 1024 1024" style="enable-background:new 0 0 1024 1024;" xml:space="preserve">
<g>
	<path d="M963.6,360.1h-33.4v245.8h33.4c18.4,0,33.4-14.9,33.4-33.4V393.4C997,375,982.1,360.1,963.6,360.1z"/>
	<path d="M877.7,35.3c0-13.5-8.1-25.7-20.6-30.8c-12.5-5.2-26.8-2.3-36.4,7.2c-148,148.2-276,218.8-357.2,251.9
		c-32.5,13.3-60.2,25.2-82.3,30.6v380.3c81.5,19.5,241.7,81.7,439.6,279.8c6.4,6.4,14.9,9.8,23.6,9.8c0.2,0,0.4,0,0.5,0
		c18.2-0.3,32.9-15.1,32.9-33.4c0-0.7,0-1.4-0.1-2.1L877.7,35.3z"/>
	<path d="M327.8,294.3H62.2c-19.4,0-35.2,17.5-35.2,37v343.3h300.8L327.8,294.3L327.8,294.3z"/>
	<path d="M329.3,721.8H72.2L188,1001.5c5.2,12.5,17.3,20.6,30.8,20.6h184.9c0,0,0,0,0.1,0c18.4,0,33.4-14.9,33.4-33.4
		c0-5.3-1.2-10.3-3.4-14.7L329.3,721.8z"/>
</g>
</svg>
