<?xml version="1.0" encoding="utf-8"?>
<!-- Generator: Adobe Illustrator 22.0.1, SVG Export Plug-In . SVG Version: 6.00 Build 0)  -->
<svg fill="#000" version="1.1" id="레이어_1" xmlns="http://www.w3.org/2000/svg" xmlns:xlink="http://www.w3.org/1999/xlink" x="0px"
	 y="0px" viewBox="0 0 1024 1024" style="enable-background:new 0 0 1024 1024;" xml:space="preserve">
<g>
	<path d="M181,1007.5H17.9c-9.7,0-17.9-7.9-17.9-17.9V456.2c0-9.7,7.9-17.9,17.9-17.9H181c9.7,0,17.9,7.9,17.9,17.9v533.4
		C199,999.6,191.1,1007.5,181,1007.5z"/>
	<path d="M250.5,488.6c0-29.9,20.8-55.6,50-61.9c81.7-17.3,235.1-81.3,235.1-322.2c0-96.6,89.6-94,100-94.3
		c15.3,0,98.7-2.5,106.3,104.4c7.9,106.8,2.5,233.2-19.2,284.7h168.8c0,0,178.8-6.3,121,179.2c-52.8,169.8-130.2,381.3-130.2,381.3
		s-28.3,50.3-66.9,52.8c-38.7,2.5-369.7,0-369.7,0h-132c-34.9,0-63.2-28.3-63.2-63.2L250.5,488.6L250.5,488.6z"/>
</g>
</svg>
