<?xml version="1.0" encoding="utf-8"?>
<!-- Generator: Adobe Illustrator 22.0.1, SVG Export Plug-In . SVG Version: 6.00 Build 0)  -->
<svg fill="#000" version="1.1" id="레이어_1" xmlns="http://www.w3.org/2000/svg" xmlns:xlink="http://www.w3.org/1999/xlink" x="0px"
	 y="0px" viewBox="0 0 1024 1024" style="enable-background:new 0 0 1024 1024;" xml:space="preserve">
<path d="M1024,382.6V217.9H692.1v30.6h-25.5v-30.6H0v164.7c74,0,134.1,60,134.1,134.1c0,74-60,134.1-134.1,134.1v164.7h666.5v-30.6
	H692v30.6h332V650.7c-74,0-134.1-60-134.1-134.1C889.9,442.6,950,382.6,1024,382.6z M692.1,725.2h-25.5v-59.6h25.5V725.2z
	 M692.1,606.1h-25.5v-59.6h25.5V606.1z M692.1,486.9h-25.5v-59.6h25.5V486.9z M692.1,367.7h-25.5v-59.6h25.5V367.7z"/>
</svg>
