<?xml version="1.0" encoding="utf-8"?>
<!-- Generator: Adobe Illustrator 22.0.1, SVG Export Plug-In . SVG Version: 6.00 Build 0)  -->
<svg fill="#000" version="1.1" id="레이어_1" xmlns="http://www.w3.org/2000/svg" xmlns:xlink="http://www.w3.org/1999/xlink" x="0px"
	 y="0px" viewBox="0 0 1024 1024" style="enable-background:new 0 0 1024 1024;" xml:space="preserve">
<path d="M966.9,0H56.6C25.2,0,0,25.2,0,56.6v910.9c0,31.4,25.2,56.6,56.6,56.6H967c31.4,0,56.6-25.2,56.6-56.6V56.6
	C1023.4,25.2,998.2,0,966.9,0z M864.7,299.1h-81.3c-63.8,0-76.5,30.5-76.5,75.3v98.7h153.5l-20,154.7H706.9v395.6H547V627.8H413.9
	V473.1h133V359.2c0-132.1,80.9-204.3,198.7-204.3c56.5,0,104.7,4.3,119.1,6V299.1z"/>
</svg>
