<?xml version="1.0" encoding="utf-8"?>
<!-- Generator: Adobe Illustrator 22.0.1, SVG Export Plug-In . SVG Version: 6.00 Build 0)  -->
<svg version="1.1" id="레이어_1" xmlns="http://www.w3.org/2000/svg" xmlns:xlink="http://www.w3.org/1999/xlink" x="0px"
	 y="0px" viewBox="0 0 512 512" style="enable-background:new 0 0 512 512;" xml:space="preserve">
<style type="text/css">
	.st0{fill:#FFFFFF;}
	.st1{fill:#4267B2;}
</style>
<g>
	<path class="st0" d="M361.8,138.9H152.4c-7.2,0-13,5.8-13,13v209.5c0,7.2,5.8,13,13,13h209.4c7.2,0,13-5.8,13-13c0,0,0,0,0,0V151.9
		C374.8,144.7,369,138.9,361.8,138.9z"/>
	<path class="st1" d="M302,374.3v-91h30.7l4.6-35.6H302V225c0-10.3,2.9-17.3,17.6-17.3h18.7v-31.8c-3.3-0.4-14.4-1.4-27.4-1.4
		c-27.1,0-45.7,16.6-45.7,47v26.2h-30.6v35.6h30.6v91H302z"/>
</g>
</svg>
