<?xml version="1.0" encoding="utf-8"?>
<!-- Generator: Adobe Illustrator 22.0.1, SVG Export Plug-In . SVG Version: 6.00 Build 0)  -->
<svg fill="#000" version="1.1" id="레이어_1" xmlns="http://www.w3.org/2000/svg" xmlns:xlink="http://www.w3.org/1999/xlink" x="0px"
	 y="0px" viewBox="0 0 1024 1024" style="enable-background:new 0 0 1024 1024;" xml:space="preserve">
<g>
	<g>
		<path d="M893.9,599.4c-11.6-152.9-82.8-248.5-145.6-333.1c-58.1-78-108.2-145.6-108.2-245.1c0-8-4.3-15.3-11.6-18.8
			c-7.2-3.7-15.6-2.9-22.2,1.4C512.2,71.3,433.4,185,405.9,293.3c-18.8,75.6-21.4,160.2-21.7,216.5
			c-87.2-18.5-106.8-148.9-106.8-150c-1.1-6.9-5.1-12.7-11.3-15.9c-6.1-3.2-13-3.2-19.3-0.3c-4.7,2.2-111.8,56.6-118.4,274.5
			c-0.3,7.2-0.3,14.5-0.3,21.7c0,211.7,172.1,383.9,383.9,383.9c0.3,0,0.8,0,0.8,0s0,0,0.3,0c211.3-0.8,382.8-172.6,382.8-383.9
			C896.1,629.5,893.9,599.4,893.9,599.4z M511.9,981.4c-70.4,0-127.9-61-127.9-136.2c0-2.6,0-5.1,0-8.4c0.8-31.5,6.9-53.4,13.5-67.9
			c12.4,26.5,34.6,50.8,70.4,50.8c11.6,0,21.4-9.5,21.4-21.4c0-30.5,0.8-65.3,8.4-97c6.9-28,22.9-57.7,43.2-81.7
			c9,30.9,26.9,56.3,43.9,80.6c24.7,35.2,50.2,71.2,54.8,133.3c0.3,3.7,0.3,7.2,0.3,11.3C640.1,920,582.7,981.4,511.9,981.4z"/>
	</g>
</g>
</svg>
