<?xml version="1.0" encoding="utf-8"?>
<!-- Generator: Adobe Illustrator 22.0.1, SVG Export Plug-In . SVG Version: 6.00 Build 0)  -->
<svg fill="#000" version="1.1" id="레이어_1" xmlns="http://www.w3.org/2000/svg" xmlns:xlink="http://www.w3.org/1999/xlink" x="0px"
	 y="0px" viewBox="0 0 1024 1024" style="enable-background:new 0 0 1024 1024;" xml:space="preserve">
<path d="M511.7,976.9L511.7,976.9c-10.5,0-20.4-4.1-27.9-11.6L84.9,562.5C30,504.9,0,430.1,0,351.3C0,183.5,136.1,47.1,303.2,47.1
	c78.8,0,152.9,30,208.8,83.2c55.9-53.5,129.6-83.2,208.8-83.2C888,47.1,1024,183.5,1024,351.3c0,83.5-33.1,161.4-92.8,219
	l-391.6,395C532.4,972.8,522.2,976.9,511.7,976.9z M303.2,125.8c-123.8,0-224.5,101.3-224.5,225.4c0,58.7,22.1,113.9,62.8,156.2
	l370.4,374l363.7-367.3c45-43.3,69.2-100.9,69.2-163.1c0-124.5-100.6-225.4-224.5-225.4c-69.9,0-134.7,31.7-177.4,87.3
	c-7.5,9.6-19.1,15.4-31.4,15.4c-12.3,0-23.9-5.8-31.4-15.4C437.6,157.5,373.2,125.8,303.2,125.8z"/>
</svg>
