<?xml version="1.0" encoding="utf-8"?>
<!-- Generator: Adobe Illustrator 22.0.1, SVG Export Plug-In . SVG Version: 6.00 Build 0)  -->
<svg fill="#000" version="1.1" id="레이어_1" xmlns="http://www.w3.org/2000/svg" xmlns:xlink="http://www.w3.org/1999/xlink" x="0px"
	 y="0px" viewBox="0 0 1024 1024" style="enable-background:new 0 0 1024 1024;" xml:space="preserve">
<g>
	<path d="M995.8,445.2L995.8,445.2L578.3,27.6C560.4,9.9,536.7,0,511.7,0s-48.8,9.9-66.5,27.6L27.7,444.8l-0.3,0.3
		c-36.5,36.8-36.5,96.4,0.3,133c16.8,16.8,38.9,26.4,62.5,27.3c1,0,1.9,0,3,0H110v307.3c0,61,49.4,110.3,110.3,110.3h163.3
		c16.5,0,30-13.5,30-30V752.8c0-27.6,22.7-50.4,50.4-50.4h96.4c27.6,0,50.4,22.7,50.4,50.4v241.1c0,16.5,13.5,30,30,30h163.3
		c61,0,110.3-49.4,110.3-110.3V606.2h15.5c25,0,48.8-9.9,66.5-27.6C1032.7,541.7,1032.7,482,995.8,445.2z M953.3,536
		c-6.6,6.6-15.1,10.2-24.3,10.2h-45.5c-16.5,0-30,13.5-30,30v337.2c0,27.6-22.7,50.4-50.4,50.4H669.8v-211
		c0-61-49.4-110.3-110.3-110.3h-96.4c-61,0-110.3,49.4-110.3,110.3v210.7H219.3c-27.6,0-50.4-22.7-50.4-50.4V576
		c0-16.5-13.5-30-30-30H94.7c-0.3,0-1,0-1.4,0c-8.9,0-17.4-3.6-23.7-9.9c-13.5-13.5-13.5-35.3,0-48.4l0,0l0,0L487.3,70
		c6.6-6.6,15.1-9.9,24.3-9.9c9.2,0,17.7,3.6,24.3,9.9l417.6,417.6c0,0,0,0,0.3,0.3C966.8,500.8,966.8,522.6,953.3,536z"/>
</g>
</svg>
