<?xml version="1.0" encoding="utf-8"?>
<!-- Generator: Adobe Illustrator 22.0.1, SVG Export Plug-In . SVG Version: 6.00 Build 0)  -->
<svg fill="#000" version="1.1" id="레이어_1" xmlns="http://www.w3.org/2000/svg" xmlns:xlink="http://www.w3.org/1999/xlink" x="0px"
	 y="0px" viewBox="0 0 1024 1024" style="enable-background:new 0 0 1024 1024;" xml:space="preserve">
<path d="M764.4,0H259.6c-51.5,0-93.3,41.8-93.3,93.3v837.4c0,51.5,41.8,93.3,93.3,93.3h504.9c51.5,0,93.3-41.8,93.3-93.3V93.3
	C857.7,41.8,816,0,764.4,0z M730.2,828.5H293.8c-12.4,0-22.5-10.1-22.5-22.5s10.1-22.5,22.5-22.5h436.5c12.4,0,22.5,10.1,22.5,22.5
	S742.7,828.5,730.2,828.5z M730.2,632.5H293.8c-12.4,0-22.5-10.1-22.5-22.5s10.1-22.5,22.5-22.5h436.5c12.4,0,22.5,10.1,22.5,22.5
	S742.7,632.5,730.2,632.5z M730.2,436.5H293.8c-12.4,0-22.5-10.1-22.5-22.5s10.1-22.5,22.5-22.5h436.5c12.4,0,22.5,10.1,22.5,22.5
	S742.7,436.5,730.2,436.5z M730.2,240.5H293.8c-12.4,0-22.5-10.1-22.5-22.5s10.1-22.5,22.5-22.5h436.5c12.4,0,22.5,10.1,22.5,22.5
	S742.7,240.5,730.2,240.5z"/>
</svg>
