<?xml version="1.0" encoding="utf-8"?>
<!-- Generator: Adobe Illustrator 22.0.1, SVG Export Plug-In . SVG Version: 6.00 Build 0)  -->
<svg fill="#000" version="1.1" id="레이어_1" xmlns="http://www.w3.org/2000/svg" xmlns:xlink="http://www.w3.org/1999/xlink" x="0px"
	 y="0px" viewBox="0 0 1024 1024" style="enable-background:new 0 0 1024 1024;" xml:space="preserve">
<g>
	<g>
		<g>
			<path d="M511.8,0C351.7,0,221.5,130.1,221.5,290.3c0,48,12.1,95.6,34.8,138l239.6,433c3.2,5.7,9.2,9.4,15.9,9.4
				c6.8,0,12.6-3.4,15.9-9.4L767.3,428c22.7-42.1,34.8-89.7,34.8-137.7C802.1,130.1,671.9,0,511.8,0z M511.8,435.1
				c-80,0-145-65.3-145-145s65.3-145,145-145s145,65.3,145,145S591.8,435.1,511.8,435.1z"/>
		</g>
	</g>
	<path d="M511.8,1024c-237.2,0-476.9-67.4-476.9-195.9c0-29.3,13.5-72.7,77.9-112.1c41-25.3,98.6-46.3,166.8-60.6
		c21.9-4.6,43.4,9.2,48,31c4.6,21.9-9.2,43.4-31,48c-131.5,28-180.5,72.4-180.5,93.8c0,39.1,139.8,115,396.1,115s396.1-76,396.1-115
		c0-20.7-47.5-64.3-174.8-92.7c-21.9-4.9-35.6-26.4-30.8-48.3c4.9-21.9,26.4-35.6,48.3-30.8C817.4,671,873.4,692,913.4,717
		c62.5,39.1,75.7,82,75.7,111C988.7,956.6,749,1024,511.8,1024z"/>
</g>
</svg>
