<svg xmlns="http://www.w3.org/2000/svg" xmlns:xlink="http://www.w3.org/1999/xlink" viewBox="0 0 395.14 395.14"><defs><style>.cls-1{fill:none;}.cls-2{fill:#5f5bd9;}.cls-3{clip-path:url(#clip-path);}.cls-4{fill:#ffeda0;}.cls-5{fill:#ffe05c;}</style><clipPath id="clip-path"><circle class="cls-1" cx="197.57" cy="197.57" r="197.53"/></clipPath></defs><g id="레이어_2" data-name="레이어 2"><g id="레이어_1-2" data-name="레이어 1"><circle class="cls-2" cx="197.57" cy="197.57" r="197.53"/><g class="cls-3"><polygon class="cls-4" points="38.97 67.04 53.66 81.1 71.7 106.49 86.82 133.57 100.25 167.98 107.17 210.17 107.17 253.12 98.15 286.35 82.2 299.78 57.23 301.88 38.97 297.47 49.25 318.25 84.93 353.3 162.16 387.3 219.66 387.3 279.68 368.62 337.4 327.9 374.75 272.29 386.3 225.28 386.3 175.12 373.07 122.65 350.2 82.78 329.42 59.69 305.71 41.02 300.46 43.53 307.6 68.72 315.57 110.06 312 171.55 299.83 209.96 272.97 250.88 247.15 274.18 228.69 281.73 215.25 275.23 206.65 245.43 195.95 190.65 173.91 142.8 152.71 110.9 121.44 73.75 103.39 59.69 74.43 37.24 38.97 67.04"/></g><path class="cls-4" d="M61,237.94a12.64,12.64,0,0,0-10.08,23.18C57.33,263.9,65,260,75.82,273,78.32,276.06,81.29,246.76,61,237.94Z"/><path class="cls-4" d="M214.8,168.16a10.88,10.88,0,0,1,17.72,12.62c-3.48,4.9-10.87,5.42-13.07,19.85C219,204,203.75,183.67,214.8,168.16Z"/><path class="cls-4" d="M246.25,184.2a21.87,21.87,0,0,1,23.33,37c-10.22,6.44-24.35,1.78-39.45,26.93C226.64,254,213.87,204.61,246.25,184.2Z"/><g class="cls-3"><path class="cls-5" d="M335,66.62S406,187.29,296.89,301c-76,76-190.56,60-238,26.86,0,0,110.81,123,256,18.89S347.26,79,347.26,79Z"/></g><path d="M395,191.49l-.06-1.43c-.06-1.71-.15-3.42-.26-5.12,0-.3,0-.59-.05-.88A196.45,196.45,0,0,0,358.06,82.48c-.08-.11-.16-.21-.23-.32q-1.44-2-2.94-4l-1.47-1.92L352,74.44a197.33,197.33,0,0,0-56.12-48.3,7,7,0,0,0-.88-.41,197.55,197.55,0,0,0-183.73-5.91,6.92,6.92,0,1,0,6.06,12.45,183.71,183.71,0,0,1,170.06,5.07,183.73,183.73,0,0,1-44.19,231.94,8.07,8.07,0,0,0-.58.59c-.15.09-.31.16-.46.27-6.57,4.84-12.69,6.3-17.23,4.1-4.37-2.12-7.38-7.45-8.12-14.18v-.25c0-.5-.1-1-.14-1.49l0-.49a6.54,6.54,0,0,0-.09-.89A290.16,290.16,0,0,0,176.59,133,292.71,292.71,0,0,0,86.79,39.4,6.93,6.93,0,0,0,79.18,51C151.05,98.22,196.05,174.16,202.83,259.5c.77,12.39,6.83,22.75,16,27.2a24.44,24.44,0,0,0,10.66,2.4c5.63,0,12.71-1.83,20.82-7.81a5.87,5.87,0,0,0,.94-.85,6.77,6.77,0,0,0,.66-.43,197.71,197.71,0,0,0,58-227.69,185.27,185.27,0,0,1,31.62,31.27l.79,1,1.53,2c.64.85,1.27,1.69,1.89,2.54.23.3.45.61.67.91a184.17,184.17,0,0,1,34.14,91.44,2,2,0,0,1,0,.23c.14,1.54.25,3.09.34,4.63l.06.84c.08,1.39.13,2.78.18,4.18,0,.36,0,.72,0,1.09.05,1.71.08,3.42.08,5.13s0,3.16-.06,4.73c-2.32,91.26-71.51,166.19-160.29,177.51-1.53.19-3.07.37-4.61.53-3.09.31-6.19.55-9.32.71s-6.27.24-9.44.24c-1.77,0-3.55,0-5.31-.09l-1.24,0c-1.43-.05-2.85-.12-4.28-.2l-1-.06c-1.67-.11-3.33-.23-5-.39h-.09A184.12,184.12,0,0,1,89.48,346c-.29-.2-.57-.41-.85-.62-.92-.67-1.82-1.36-2.72-2a185.27,185.27,0,0,1-34.64-34.79,54.33,54.33,0,0,0,13.93,1.89,45.77,45.77,0,0,0,22.58-5.8C99.7,298,108.17,286,111.72,271.29a7,7,0,0,0,.43-1.46c.12-.73.22-1.46.34-2.19s.22-1.39.33-2.09c0-.3.09-.6.13-.91s.07-.41.1-.63a.71.71,0,0,1,0-.14,242,242,0,0,0,2.36-33.63A238.33,238.33,0,0,0,55.41,72a6.92,6.92,0,1,0-10.36,9.19,224.53,224.53,0,0,1,56.52,149.06,228.24,228.24,0,0,1-2.36,32.67s0,.06,0,.09c-.11.74-.23,1.47-.35,2.21C96.63,277.53,90.23,287.4,81,292.57c-9.73,5.45-21.94,5.33-34.36-.32a6.65,6.65,0,0,0-.91-.33,6.12,6.12,0,0,0-1-.6c-2.49-1.25-5-2.59-7.42-4a183.65,183.65,0,0,1,4.25-186.92,6.92,6.92,0,0,0-11.75-7.33A197.5,197.5,0,0,0,25.73,295a6.9,6.9,0,0,0,.41.87A197.39,197.39,0,0,0,74.43,352l1.86,1.47,1.9,1.46c1.32,1,2.64,2,4,2.95l.31.23a196.45,196.45,0,0,0,101.58,36.61l.88.05c1.7.11,3.41.2,5.12.26l1.43.06c2,.06,4,.1,6.08.1,108.94,0,197.57-88.63,197.57-197.57C395.14,195.54,395.1,193.51,395,191.49Z"/></g></g></svg>