<?xml version="1.0" encoding="utf-8"?>
<!-- Generator: Adobe Illustrator 22.0.1, SVG Export Plug-In . SVG Version: 6.00 Build 0)  -->
<svg fill="#000" version="1.1" id="레이어_1" xmlns="http://www.w3.org/2000/svg" xmlns:xlink="http://www.w3.org/1999/xlink" x="0px"
	 y="0px" viewBox="0 0 1024 1024" style="enable-background:new 0 0 1024 1024;" xml:space="preserve">
<g>
	<g>
		<path d="M884.2,724.3c-70.7-73.6-103.5-151.1-103.5-243.9v-90.8c0-117.3-75.1-217.3-180-254.4V89.8c0-49.5-40.2-89.8-89.8-89.8
			s-89.8,40.2-89.8,89.8v45.4c-104.5,37.1-180,137.2-180,254.4v90.8c0,92.7-33,170.4-103.5,243.9c-43.2,6.7-76.4,43.8-76.4,88.9
			c0,49.5,40.2,89.8,89.8,89.8h212.9c14.1,68.4,74.5,119.8,146.7,119.8s133-51.4,146.7-119.8h212.9c49.5,0,89.8-40.2,89.8-89.8
			C960.5,768.1,927.3,730.8,884.2,724.3z M481,89.8c0-16.7,13.4-30.1,30.1-30.1c16.7,0,30.1,13.4,30.1,30.1v31.6
			c-9.9-1-19.8-1.6-30.1-1.6c-10.2,0-20.1,0.7-30.1,1.6V89.8L481,89.8z M301.1,480.5v-90.8c0-115.7,94-209.7,209.7-209.7
			s209.7,94,209.7,209.7v90.8c0,89.8,27.5,169.7,83.4,242.9H217.7C273.5,650.2,301.1,570.3,301.1,480.5z M510.8,963.1
			c-39,0-72.2-25.3-84.7-60.1h169.4C583.3,937.8,550.1,963.1,510.8,963.1z M870.6,843.3H151.5c-16.7,0-30.1-13.4-30.1-30.1
			s13.4-30.1,30.1-30.1l0,0h719.3c16.7,0,30.1,13.4,30.1,30.1C900.7,829.8,887,843.3,870.6,843.3z"/>
	</g>
</g>
</svg>
