<?xml version="1.0" encoding="utf-8"?>
<!-- Generator: Adobe Illustrator 22.0.1, SVG Export Plug-In . SVG Version: 6.00 Build 0)  -->
<svg fill="#000" version="1.1" id="레이어_1" xmlns="http://www.w3.org/2000/svg" xmlns:xlink="http://www.w3.org/1999/xlink" x="0px"
	 y="0px" viewBox="0 0 1024 1024" style="enable-background:new 0 0 1024 1024;" xml:space="preserve">
<path d="M513.4,905.3"/>
<path d="M919.8,794.1c-4.5-9-12.4-16.8-23.6-23.6c-39.3-22.5-58.4-119-58.4-119S812,508.9,780.6,296.7
	C757,140.6,640.2,87.8,580.7,72.1C579.6,36.2,550.4,7,514.4,7s-66.3,29.2-66.3,65.1c-59.5,16.8-176.3,68.5-199.9,224.6
	c-31.4,211.1-57.3,354.8-57.3,354.8s-19.1,96.6-58.4,119c-20.2,12.4-28.1,29.2-30.3,42.7c-2.2,14.6,1.1,28.1,10.1,39.3
	c3.4,3.4,6.7,6.7,11.2,10.1c7.9,5.6,19.1,9,31.4,9c61.8,0,324.5,0,324.5,0H547h326.8c9,0,19.1-2.2,27-6.7c0,0,1.1,0,1.1-1.1
	C924.3,849.1,932.2,817.7,919.8,794.1z"/>
<path d="M634.6,897.4c0,66.3-53.9,121.3-121.3,121.3S392,964.8,392,897.4H634.6z"/>
</svg>
