<?xml version="1.0" encoding="utf-8"?>
<!-- Generator: Adobe Illustrator 22.0.1, SVG Export Plug-In . SVG Version: 6.00 Build 0)  -->
<svg fill="#000" version="1.1" id="레이어_1" xmlns="http://www.w3.org/2000/svg" xmlns:xlink="http://www.w3.org/1999/xlink" x="0px"
	 y="0px" viewBox="0 0 1024 1024" style="enable-background:new 0 0 1024 1024;" xml:space="preserve">
<g>
	<path d="M77.3,9.9C60.8-6.6,38.1-4.7,30.2,32.7C24.3,60.9,4.3,167.7,95,303.8c142.5,213.9,308.5,285.3,387.8,284.9
		c60.4-0.4,75.3,32.2,120.5,96.6c104,148.7,220.2,329.2,318.3,338.2c21.6,2.3,42.7-4.4,59.2-18.4c25.1-25.1,30.6-61.3-19.2-111.1
		L77.3,9.9z"/>
	<path d="M1017.7,178.5l-0.8-0.8c-8.2-8.2-21.6-8.2-29.5,0L805.4,360c-5.9,9.4-18,12.1-27.4,6.3c-9.4-5.8-12.1-18-6.3-27.4
		c1.5-2.3,3.5-4.8,6.3-6.3l182.1-182.2c8.2-8.2,8.2-21.6,0-29.5s-21.6-8.2-29.5,0l0,0L748.5,303c-7.5,9.4-21.2,10.9-31,3.5
		c-7.5-9.4-5.9-23.2,3.5-31L903,93.4c8.2-8.2,8.2-21.6,0-29.5c-8.2-8.2-21.6-8.2-29.5,0l0,0L691.6,246.1c-7.5,9.4-21.2,10.9-31,3.5
		c-7.5-9.4-5.9-23.2,3.5-31l182-182.1c8.2-8.2,8.2-21.6,0-29.5l0,0l-0.8-0.8C837.8-1.3,825.7-2,817.1,5L706.4,96
		C591,191,554.9,240.8,554.5,321.3c0.8,29.1-5.2,58.1-16.5,84.7l80.1,80.1c26.7-11.7,55.7-17.3,84.7-16.5
		c80.5-0.4,130.3-36.1,225.3-151.9l91-110.7C1026,198.2,1025.6,186,1017.7,178.5z"/>
	<path d="M27.1,896.1c-37,49.8-33,81.6-7.1,107.5s57.7,29.9,107.5-7.1C269.6,890.9,369,754.7,469,633c-44.8-4.8-88.3-17.6-128-38.5
		C233.1,682.1,118.5,772.9,27.1,896.1z"/>
</g>
</svg>
