<?xml version="1.0" encoding="utf-8"?>
<!-- Generator: Adobe Illustrator 22.0.1, SVG Export Plug-In . SVG Version: 6.00 Build 0)  -->
<svg fill="#000" version="1.1" id="레이어_1" xmlns="http://www.w3.org/2000/svg" xmlns:xlink="http://www.w3.org/1999/xlink" x="0px"
	 y="0px" viewBox="0 0 1024 1024" style="enable-background:new 0 0 1024 1024;" xml:space="preserve">
<g>
	<g>
		<path d="M1008,447.9c-8.2-5.2-72.8-43.9-98.5-55.6l-31.8-76.8c9.5-25.4,27.5-96.6,30.3-109c2.6-11.4-0.8-23.4-9.1-31.7l-49.7-49.7
			c-8.3-8.3-20.3-11.8-31.7-9.1c-9.4,2.1-82.5,20.5-109,30.3l-76.8-31.8c-11.2-24.6-48.8-87.6-55.6-98.5c-6.3-10-17.2-16-28.9-16
			h-70.3c-11.7,0-22.7,6-28.9,16c-5.2,8.2-43.9,72.8-55.6,98.5l-76.8,31.8c-25.4-9.4-96.6-27.5-109-30.3
			c-11.4-2.6-23.4,0.8-31.7,9.1l-49.7,49.7c-8.3,8.3-11.8,20.3-9.1,31.7c2.1,9.4,20.5,82.5,30.3,109l-31.8,76.8
			C90,403.5,27,441.1,16.1,447.9C6,454.2,0,465.1,0,476.8v70.3c0,11.7,6,22.7,16,28.9c8.2,5.2,72.8,43.9,98.5,55.6l31.8,76.8
			c-9.4,25.4-27.5,96.6-30.3,109c-2.6,11.4,0.8,23.4,9.1,31.7l49.7,49.7c8.3,8.3,20.3,11.8,31.7,9.1c9.4-2.1,82.5-20.5,109-30.3
			l76.8,31.8c11.2,24.6,48.8,87.6,55.6,98.5c6.2,9.9,17.2,16,28.9,16h70.3c11.7,0,22.7-6,28.9-16c5.2-8.2,43.9-72.8,55.6-98.5
			l76.8-31.8c25.4,9.5,96.6,27.5,109,30.3c11.5,2.6,23.4-0.8,31.7-9.1l49.7-49.7c8.3-8.3,11.8-20.3,9.1-31.7
			c-2.1-9.4-20.5-82.5-30.3-109l31.8-76.8c24.6-11.2,87.6-48.8,98.5-55.6c9.9-6.2,16-17.2,16-28.9v-70.3
			C1024,465.1,1018,454.2,1008,447.9z M512,735.2c-123.1,0-223.2-100.1-223.2-223.2S388.9,288.8,512,288.8S735.2,388.9,735.2,512
			S635.1,735.2,512,735.2z"/>
	</g>
</g>
</svg>
