<?xml version="1.0" encoding="utf-8"?>
<!-- Generator: Adobe Illustrator 22.0.1, SVG Export Plug-In . SVG Version: 6.00 Build 0)  -->
<svg version="1.1" id="레이어_1" xmlns="http://www.w3.org/2000/svg" xmlns:xlink="http://www.w3.org/1999/xlink" x="0px"
	 y="0px" viewBox="0 0 1024 1024" style="enable-background:new 0 0 1024 1024;" xml:space="preserve">
<path d="M512,0C229.2,0,0,229.2,0,512s229.2,512,512,512s512-229.2,512-512S794.8,0,512,0z M572.5,856.1c-16.7,13-36.7,19.5-60,19.5
	c-24,0-44.3-6.5-61-19.5s-25-34.2-25-63.5c0-30.7,8.3-52.2,25-64.5s37-18.5,61-18.5c23.3,0,43.3,6.2,60,18.5s25,33.8,25,64.5
	C597.5,821.9,589.2,843.1,572.5,856.1z M572.5,625.5h-119l-25-477.1h169L572.5,625.5z"/>
</svg>
